<mxfile host="" modified="2020-06-26T00:38:44.824Z" agent="5.0 (Windows NT 10.0; Win64; x64) AppleWebKit/537.36 (KHTML, like Gecko) Code/1.46.1 Chrome/78.0.3904.130 Electron/7.3.1 Safari/537.36" etag="-G0OKc9n9xp6yu0dQ3vx" version="13.1.3">
    <diagram id="6hGFLwfOUW9BJ-s0fimq" name="Page-1">
        <mxGraphModel dx="906" dy="2127" grid="1" gridSize="5" guides="1" tooltips="1" connect="1" arrows="1" fold="1" page="1" pageScale="1" pageWidth="827" pageHeight="1169" math="0" shadow="0">
            <root>
                <mxCell id="0"/>
                <mxCell id="1" parent="0"/>
                <mxCell id="4" value="" style="rounded=0;whiteSpace=wrap;html=1;fillColor=#000000;strokeColor=none;fontColor=#ffffff;rotation=0;align=left;" parent="1" vertex="1">
                    <mxGeometry x="215" y="-1060" width="410" height="675" as="geometry"/>
                </mxCell>
                <mxCell id="9" value="&lt;font&gt;&lt;span style=&quot;font-size: 23px&quot;&gt;Investment&lt;/span&gt;&lt;br&gt;&lt;div style=&quot;text-align: left&quot;&gt;&lt;span&gt;Gain or loss&lt;/span&gt;&lt;/div&gt;Maket pricee&amp;nbsp; &amp;nbsp; &amp;nbsp; &amp;nbsp; Investment&amp;nbsp;&lt;br&gt;&lt;/font&gt;" style="rounded=1;whiteSpace=wrap;html=1;strokeColor=none;gradientColor=#636363;gradientDirection=east;" parent="1" vertex="1">
                    <mxGeometry x="235" y="-865" width="365" height="75" as="geometry"/>
                </mxCell>
                <mxCell id="10" value="&lt;font color=&quot;#ff9933&quot; size=&quot;1&quot;&gt;&lt;b style=&quot;line-height: 360% ; font-size: 53px&quot;&gt;Stocks&lt;/b&gt;&lt;/font&gt;" style="rounded=0;whiteSpace=wrap;html=1;strokeColor=none;fillColor=#000000;" parent="1" vertex="1">
                    <mxGeometry x="229" y="-1050" width="185" height="60" as="geometry"/>
                </mxCell>
                <mxCell id="11" value="&lt;font&gt;&lt;span style=&quot;font-size: 23px&quot;&gt;Future Vailue&lt;/span&gt;&lt;br&gt;&lt;div style=&quot;text-align: left&quot;&gt;&lt;span&gt;Dow Price 0&lt;/span&gt;&lt;/div&gt;&lt;font style=&quot;font-size: 12px&quot;&gt;&lt;div style=&quot;text-align: left&quot;&gt;&lt;span&gt;The day before ratio 0&lt;/span&gt;&lt;/div&gt;&lt;div style=&quot;text-align: left&quot;&gt;&lt;span&gt;Nikkey Price&lt;/span&gt;&lt;/div&gt;&lt;div style=&quot;text-align: left&quot;&gt;&lt;span&gt;The day before ratio&lt;/span&gt;&lt;/div&gt;&lt;/font&gt;&lt;/font&gt;" style="rounded=1;whiteSpace=wrap;html=1;strokeColor=none;gradientColor=#636363;gradientDirection=east;" vertex="1" parent="1">
                    <mxGeometry x="232" y="-975" width="365" height="100" as="geometry"/>
                </mxCell>
                <mxCell id="12" value="&lt;font&gt;&lt;span style=&quot;font-size: 23px&quot;&gt;SONY&lt;/span&gt;&lt;br&gt;&lt;div style=&quot;text-align: left&quot;&gt;&lt;font color=&quot;#007fff&quot;&gt;Market 7.524&lt;/font&gt;&lt;/div&gt;&lt;div style=&quot;text-align: left&quot;&gt;&lt;font color=&quot;#ffff00&quot;&gt;Benefits 6,444&lt;/font&gt;&lt;/div&gt;&lt;font color=&quot;#ff8000&quot;&gt;Gain or Loss 11,504,800&lt;/font&gt;&amp;nbsp;&lt;br&gt;&lt;/font&gt;" style="rounded=1;whiteSpace=wrap;html=1;strokeColor=none;gradientColor=#636363;gradientDirection=east;" vertex="1" parent="1">
                    <mxGeometry x="237.5" y="-775" width="365" height="75" as="geometry"/>
                </mxCell>
                <mxCell id="13" value="&lt;font&gt;&lt;span style=&quot;font-size: 23px&quot;&gt;Investment&lt;/span&gt;&lt;br&gt;&lt;div style=&quot;text-align: left&quot;&gt;&lt;span&gt;Gain or loss&lt;/span&gt;&lt;/div&gt;Maket pricee&amp;nbsp; &amp;nbsp; &amp;nbsp; &amp;nbsp; Investment&amp;nbsp;&lt;br&gt;&lt;/font&gt;" style="rounded=1;whiteSpace=wrap;html=1;strokeColor=none;gradientColor=#636363;gradientDirection=east;" vertex="1" parent="1">
                    <mxGeometry x="237.5" y="-685" width="365" height="75" as="geometry"/>
                </mxCell>
                <mxCell id="14" value="&lt;font&gt;&lt;span style=&quot;font-size: 23px&quot;&gt;Investment&lt;/span&gt;&lt;br&gt;&lt;div style=&quot;text-align: left&quot;&gt;&lt;span&gt;Gain or loss&lt;/span&gt;&lt;/div&gt;Maket pricee&amp;nbsp; &amp;nbsp; &amp;nbsp; &amp;nbsp; Investment&amp;nbsp;&lt;br&gt;&lt;/font&gt;" style="rounded=1;whiteSpace=wrap;html=1;strokeColor=none;gradientColor=#636363;gradientDirection=east;" vertex="1" parent="1">
                    <mxGeometry x="237.5" y="-595" width="365" height="75" as="geometry"/>
                </mxCell>
                <mxCell id="15" value="&lt;font&gt;&lt;span style=&quot;font-size: 23px&quot;&gt;Investment&lt;/span&gt;&lt;br&gt;&lt;div style=&quot;text-align: left&quot;&gt;&lt;span&gt;Gain or loss&lt;/span&gt;&lt;/div&gt;Maket pricee&amp;nbsp; &amp;nbsp; &amp;nbsp; &amp;nbsp; Investment&amp;nbsp;&lt;br&gt;&lt;/font&gt;" style="rounded=1;whiteSpace=wrap;html=1;strokeColor=none;gradientColor=#636363;gradientDirection=east;" vertex="1" parent="1">
                    <mxGeometry x="235" y="-505" width="365" height="75" as="geometry"/>
                </mxCell>
                <mxCell id="16" value="" style="rounded=1;whiteSpace=wrap;html=1;fillColor=#60a917;strokeColor=#2D7600;fontColor=#ffffff;" vertex="1" parent="1">
                    <mxGeometry x="505" y="-756" width="85" height="37" as="geometry"/>
                </mxCell>
                <mxCell id="17" value="" style="ellipse;whiteSpace=wrap;html=1;aspect=fixed;fillColor=#990099;strokeColor=#A50040;fontColor=#ffffff;" vertex="1" parent="1">
                    <mxGeometry x="255" y="-754" width="35" height="35" as="geometry"/>
                </mxCell>
                <mxCell id="18" value="" style="rounded=1;whiteSpace=wrap;html=1;fillColor=#FF0000;strokeColor=#2D7600;fontColor=#ffffff;" vertex="1" parent="1">
                    <mxGeometry x="505" y="-666" width="85" height="37" as="geometry"/>
                </mxCell>
                <mxCell id="19" value="" style="rounded=1;whiteSpace=wrap;html=1;fillColor=#60a917;strokeColor=#2D7600;fontColor=#ffffff;" vertex="1" parent="1">
                    <mxGeometry x="505" y="-576" width="85" height="37" as="geometry"/>
                </mxCell>
                <mxCell id="20" value="" style="rounded=1;whiteSpace=wrap;html=1;fillColor=#FF0000;strokeColor=#2D7600;fontColor=#ffffff;" vertex="1" parent="1">
                    <mxGeometry x="505" y="-486" width="85" height="37" as="geometry"/>
                </mxCell>
                <mxCell id="21" value="" style="ellipse;whiteSpace=wrap;html=1;aspect=fixed;fillColor=#990099;strokeColor=#A50040;fontColor=#ffffff;" vertex="1" parent="1">
                    <mxGeometry x="255" y="-666" width="35" height="35" as="geometry"/>
                </mxCell>
                <mxCell id="22" value="" style="ellipse;whiteSpace=wrap;html=1;aspect=fixed;fillColor=#990099;strokeColor=#A50040;fontColor=#ffffff;" vertex="1" parent="1">
                    <mxGeometry x="255" y="-574" width="35" height="35" as="geometry"/>
                </mxCell>
                <mxCell id="23" value="" style="ellipse;whiteSpace=wrap;html=1;aspect=fixed;fillColor=#990099;strokeColor=#A50040;fontColor=#ffffff;" vertex="1" parent="1">
                    <mxGeometry x="255" y="-484" width="35" height="35" as="geometry"/>
                </mxCell>
                <mxCell id="24" value="&lt;font style=&quot;font-size: 26px&quot;&gt;&lt;b&gt;Thu 25 Jun&lt;/b&gt;&lt;/font&gt;" style="rounded=0;whiteSpace=wrap;html=1;strokeColor=none;fillColor=#000000;opacity=0;" vertex="1" parent="1">
                    <mxGeometry x="360" y="-1025" width="152.5" height="60" as="geometry"/>
                </mxCell>
                <mxCell id="26" value="" style="ellipse;whiteSpace=wrap;html=1;aspect=fixed;fillColor=#FF8000;" vertex="1" parent="1">
                    <mxGeometry x="532" y="-1035" width="47.5" height="47.5" as="geometry"/>
                </mxCell>
            </root>
        </mxGraphModel>
    </diagram>
</mxfile>